<?xml version="1.0" encoding="UTF-8" standalone="no"?>
<!-- Created with Inkscape (http://www.inkscape.org/) -->

<svg
   xmlns:dc="http://purl.org/dc/elements/1.1/"
   xmlns:cc="http://creativecommons.org/ns#"
   xmlns:rdf="http://www.w3.org/1999/02/22-rdf-syntax-ns#"
   xmlns:svg="http://www.w3.org/2000/svg"
   xmlns="http://www.w3.org/2000/svg"
   xmlns:xlink="http://www.w3.org/1999/xlink"
   xmlns:sodipodi="http://sodipodi.sourceforge.net/DTD/sodipodi-0.dtd"
   xmlns:inkscape="http://www.inkscape.org/namespaces/inkscape"
   width="200"
   height="200"
   viewBox="0 0 200 200"
   id="svg4258"
   version="1.1"
   inkscape:version="0.91 r13725"
   sodipodi:docname="accessories-image-viewer.svg">
  <defs
     id="defs4260">
    <linearGradient
       inkscape:collect="always"
       id="linearGradient8527">
      <stop
         style="stop-color:#ffffff;stop-opacity:0.48826292"
         offset="0"
         id="stop8529" />
      <stop
         style="stop-color:#ffffff;stop-opacity:0"
         offset="1"
         id="stop8531" />
    </linearGradient>
    <linearGradient
       id="linearGradient8497"
       inkscape:collect="always">
      <stop
         id="stop8499"
         offset="0"
         style="stop-color:#ebbc18;stop-opacity:1" />
      <stop
         id="stop8501"
         offset="1"
         style="stop-color:#e9b818;stop-opacity:0" />
    </linearGradient>
    <linearGradient
       inkscape:collect="always"
       id="linearGradient8463">
      <stop
         style="stop-color:#620f65;stop-opacity:1;"
         offset="0"
         id="stop8465" />
      <stop
         style="stop-color:#9c234e;stop-opacity:1"
         offset="1"
         id="stop8467" />
    </linearGradient>
    <linearGradient
       inkscape:collect="always"
       id="linearGradient7586">
      <stop
         style="stop-color:#f4800c;stop-opacity:1"
         offset="0"
         id="stop7588" />
      <stop
         style="stop-color:#dc7918;stop-opacity:1"
         offset="1"
         id="stop7590" />
    </linearGradient>
    <clipPath
       clipPathUnits="userSpaceOnUse"
       id="clipPath4278">
      <path
         sodipodi:nodetypes="ssssssccs"
         style="fill:#e1e1e1;fill-opacity:1;stroke:none"
         d="m 300,196 c -2.216,0 -4,1.784 -4,4 l 0,72 c 0,2.216 1.784,4 4,4 l 56,0 c 2.216,0 4,-1.784 4,-4 l 0,-52 -24,-24 z"
         id="path4280"
         inkscape:connector-curvature="0" />
    </clipPath>
    <clipPath
       clipPathUnits="userSpaceOnUse"
       id="clipPath4088">
      <ellipse
         ry="15.671611"
         rx="17.318172"
         cy="253.67162"
         cx="180.31818"
         style="opacity:0.2;fill:#257db1;fill-opacity:1;stroke:none"
         id="path4090"
         transform="matrix(0.98162783,0,0,1.0847641,2.9946601,55.82614)" />
    </clipPath>
    <clipPath
       clipPathUnits="userSpaceOnUse"
       id="clipPath4125">
      <path
         inkscape:connector-curvature="0"
         style="fill:#0286c2;fill-opacity:1;stroke:none"
         d="m 180,242 -4,4 0,18 c 0,1.108 -0.892,2 -2,2 l -20,0 c -1.108,0 -2,-0.892 -2,-2 l 0,-20 c 0,-1.108 0.892,-2 2,-2 l 14,0 6,0 6,0 z"
         id="path4127" />
    </clipPath>
    <clipPath
       clipPathUnits="userSpaceOnUse"
       id="clipPath4125-5">
      <path
         inkscape:connector-curvature="0"
         style="fill:#0286c2;fill-opacity:1;stroke:none"
         d="m 180,242 -4,4 0,18 c 0,1.108 -0.892,2 -2,2 l -20,0 c -1.108,0 -2,-0.892 -2,-2 l 0,-20 c 0,-1.108 0.892,-2 2,-2 l 14,0 6,0 6,0 z"
         id="path4127-9" />
    </clipPath>
    <clipPath
       clipPathUnits="userSpaceOnUse"
       id="clipPath7870">
      <path
         style="fill:url(#linearGradient7874);fill-opacity:1;fill-rule:evenodd;stroke:none;stroke-width:1px;stroke-linecap:butt;stroke-linejoin:miter;stroke-opacity:1"
         d="m 25.146485,986.46865 c 0,0 -0.618718,-5.43589 2.386486,-7.24785 3.005203,-1.81196 21.089057,-9.27837 25.106545,-10.35485 4.017487,-1.07648 10.663709,-0.53256 13.610485,10.46496 2.946775,10.99751 8.751416,48.87539 9.281746,53.02959 0.53033,4.1543 0.08655,6.9853 -4.156093,10.2557 -4.24264,3.2703 -4.264087,-0.4582 -6.056664,4.3543 l -24.13002,0 c -3.800699,0 -4.5871,-3.4733 -5.480077,-6.8059 -0.892978,-3.3327 -4.684583,-22.0971 -4.684583,-22.0971 0,0 -6.540737,-30.05206 -5.877825,-31.59885 z"
         id="path7872"
         inkscape:connector-curvature="0"
         sodipodi:nodetypes="cssssccsscc" />
    </clipPath>
    <linearGradient
       inkscape:collect="always"
       xlink:href="#linearGradient7586"
       id="linearGradient7874"
       gradientUnits="userSpaceOnUse"
       x1="32.04155"
       y1="1020.1326"
       x2="53.763767"
       y2="1015.3726" />
    <clipPath
       clipPathUnits="userSpaceOnUse"
       id="clipPath7870-3">
      <path
         style="fill:url(#linearGradient7874);fill-opacity:1;fill-rule:evenodd;stroke:none;stroke-width:1px;stroke-linecap:butt;stroke-linejoin:miter;stroke-opacity:1"
         d="m 25.146485,986.46865 c 0,0 -0.618718,-5.43589 2.386486,-7.24785 3.005203,-1.81196 21.089057,-9.27837 25.106545,-10.35485 4.017487,-1.07648 10.663709,-0.53256 13.610485,10.46496 2.946775,10.99751 8.751416,48.87539 9.281746,53.02959 0.53033,4.1543 0.08655,6.9853 -4.156093,10.2557 -4.24264,3.2703 -4.264087,-0.4582 -6.056664,4.3543 l -24.13002,0 c -3.800699,0 -4.5871,-3.4733 -5.480077,-6.8059 -0.892978,-3.3327 -4.684583,-22.0971 -4.684583,-22.0971 0,0 -6.540737,-30.05206 -5.877825,-31.59885 z"
         id="path7872-2"
         inkscape:connector-curvature="0"
         sodipodi:nodetypes="cssssccsscc" />
    </clipPath>
    <clipPath
       clipPathUnits="userSpaceOnUse"
       id="clipPath7870-3-7">
      <path
         style="fill:url(#linearGradient7874);fill-opacity:1;fill-rule:evenodd;stroke:none;stroke-width:1px;stroke-linecap:butt;stroke-linejoin:miter;stroke-opacity:1"
         d="m 25.146485,986.46865 c 0,0 -0.618718,-5.43589 2.386486,-7.24785 3.005203,-1.81196 21.089057,-9.27837 25.106545,-10.35485 4.017487,-1.07648 10.663709,-0.53256 13.610485,10.46496 2.946775,10.99751 8.751416,48.87539 9.281746,53.02959 0.53033,4.1543 0.08655,6.9853 -4.156093,10.2557 -4.24264,3.2703 -4.264087,-0.4582 -6.056664,4.3543 l -24.13002,0 c -3.800699,0 -4.5871,-3.4733 -5.480077,-6.8059 -0.892978,-3.3327 -4.684583,-22.0971 -4.684583,-22.0971 0,0 -6.540737,-30.05206 -5.877825,-31.59885 z"
         id="path7872-2-0"
         inkscape:connector-curvature="0"
         sodipodi:nodetypes="cssssccsscc" />
    </clipPath>
    <clipPath
       clipPathUnits="userSpaceOnUse"
       id="clipPath7870-5">
      <path
         style="fill:url(#linearGradient7874);fill-opacity:1;fill-rule:evenodd;stroke:none;stroke-width:1px;stroke-linecap:butt;stroke-linejoin:miter;stroke-opacity:1"
         d="m 25.146485,986.46865 c 0,0 -0.618718,-5.43589 2.386486,-7.24785 3.005203,-1.81196 21.089057,-9.27837 25.106545,-10.35485 4.017487,-1.07648 10.663709,-0.53256 13.610485,10.46496 2.946775,10.99751 8.751416,48.87539 9.281746,53.02959 0.53033,4.1543 0.08655,6.9853 -4.156093,10.2557 -4.24264,3.2703 -4.264087,-0.4582 -6.056664,4.3543 l -24.13002,0 c -3.800699,0 -4.5871,-3.4733 -5.480077,-6.8059 -0.892978,-3.3327 -4.684583,-22.0971 -4.684583,-22.0971 0,0 -6.540737,-30.05206 -5.877825,-31.59885 z"
         id="path7872-4"
         inkscape:connector-curvature="0"
         sodipodi:nodetypes="cssssccsscc" />
    </clipPath>
    <filter
       inkscape:collect="always"
       style="color-interpolation-filters:sRGB"
       id="filter8436"
       x="-0.059902449"
       width="1.1198049"
       y="-0.060097869"
       height="1.1201957">
      <feGaussianBlur
         inkscape:collect="always"
         stdDeviation="10.854102"
         id="feGaussianBlur8438" />
    </filter>
    <clipPath
       clipPathUnits="userSpaceOnUse"
       id="clipPath8459">
      <rect
         style="opacity:1;fill:#ffffff;fill-opacity:1;stroke:none;stroke-width:5.19999981;stroke-miterlimit:4;stroke-dasharray:none;stroke-opacity:1"
         id="rect8461"
         width="342.91367"
         height="342.9921"
         x="362.28989"
         y="-96.387421" />
    </clipPath>
    <linearGradient
       inkscape:collect="always"
       xlink:href="#linearGradient8463"
       id="linearGradient8469"
       x1="456.71875"
       y1="788.00537"
       x2="461.53552"
       y2="923.00537"
       gradientUnits="userSpaceOnUse"
       gradientTransform="matrix(0.39934733,0,0,0.39934733,-112.86983,583.80245)" />
    <radialGradient
       inkscape:collect="always"
       xlink:href="#linearGradient8497"
       id="radialGradient8495"
       cx="391.12714"
       cy="1069.9358"
       fx="391.12714"
       fy="1069.9358"
       r="142.40839"
       gradientTransform="matrix(0.71859381,-0.0019829,0.0011025,0.39954429,-238.9154,584.39508)"
       gradientUnits="userSpaceOnUse" />
    <radialGradient
       inkscape:collect="always"
       xlink:href="#linearGradient8527"
       id="radialGradient8495-3"
       cx="529.16583"
       cy="999.23834"
       fx="529.16583"
       fy="999.23834"
       r="142.40839"
       gradientTransform="matrix(0.3932291,-0.33257287,0.38110323,0.45061066,-446.4548,708.30447)"
       gradientUnits="userSpaceOnUse" />
    <filter
       inkscape:collect="always"
       style="color-interpolation-filters:sRGB"
       id="filter8585"
       x="-0.06000698"
       width="1.120014"
       y="-0.059993021"
       height="1.119986">
      <feGaussianBlur
         inkscape:collect="always"
         stdDeviation="8.2740385"
         id="feGaussianBlur8587" />
    </filter>
    <clipPath
       clipPathUnits="userSpaceOnUse"
       id="clipPath8589">
      <rect
         style="opacity:1;fill:url(#radialGradient8593);fill-opacity:1;stroke:none;stroke-width:5.19999981;stroke-miterlimit:4;stroke-dasharray:none;stroke-opacity:1"
         id="rect8591"
         width="284.81677"
         height="284.95831"
         x="390.71875"
         y="787.52625" />
    </clipPath>
    <radialGradient
       inkscape:collect="always"
       xlink:href="#linearGradient8527"
       id="radialGradient8593"
       gradientUnits="userSpaceOnUse"
       gradientTransform="matrix(0.98467945,-0.83279101,0.95431521,1.1283678,-835.32535,311.76372)"
       cx="529.16583"
       cy="999.23834"
       fx="529.16583"
       fy="999.23834"
       r="142.40839" />
    <filter
       inkscape:collect="always"
       style="color-interpolation-filters:sRGB"
       id="filter8610"
       x="-0.059902439"
       width="1.1198049"
       y="-0.060097879"
       height="1.1201958">
      <feGaussianBlur
         inkscape:collect="always"
         stdDeviation="10.854089"
         id="feGaussianBlur8612" />
    </filter>
  </defs>
  <sodipodi:namedview
     id="base"
     pagecolor="#4e4e4e"
     bordercolor="#666666"
     borderopacity="1.0"
     inkscape:pageopacity="0"
     inkscape:pageshadow="2"
     inkscape:zoom="2.8284271"
     inkscape:cx="85.146374"
     inkscape:cy="122.31861"
     inkscape:document-units="px"
     inkscape:current-layer="g5494"
     showgrid="false"
     units="px"
     inkscape:window-width="1920"
     inkscape:window-height="1047"
     inkscape:window-x="0"
     inkscape:window-y="0"
     inkscape:window-maximized="1" />
  <metadata
     id="metadata4263">
    <rdf:RDF>
      <cc:Work
         rdf:about="">
        <dc:format>image/svg+xml</dc:format>
        <dc:type
           rdf:resource="http://purl.org/dc/dcmitype/StillImage" />
        <dc:title></dc:title>
      </cc:Work>
    </rdf:RDF>
  </metadata>
  <g
     inkscape:label="Layer 1"
     inkscape:groupmode="layer"
     id="layer1"
     transform="translate(0,-852.36216)">
    <g
       id="g5494">
      <rect
         style="opacity:0.5;fill:#000000;fill-opacity:1;stroke:none;stroke-width:5.19999981;stroke-miterlimit:4;stroke-dasharray:none;stroke-opacity:1;filter:url(#filter8610)"
         id="rect8318-0"
         width="434.87067"
         height="433.45645"
         x="-93.216156"
         y="712.53668"
         transform="matrix(0.39934733,0,0,0.39934733,50.862578,583.4031)" />
      <rect
         style="opacity:1;fill:#37474f;fill-opacity:1;stroke:none;stroke-width:5.19999981;stroke-miterlimit:4;stroke-dasharray:none;stroke-opacity:1"
         id="rect8318"
         width="173.66444"
         height="173.09969"
         x="13.636956"
         y="867.95276" />
      <rect
         style="opacity:1;fill:#ffffff;fill-opacity:1;stroke:none;stroke-width:5.19999981;stroke-miterlimit:4;stroke-dasharray:none;stroke-opacity:1"
         id="rect8320"
         width="134.1497"
         height="134.18039"
         x="33.209496"
         y="887.10168" />
      <rect
         style="opacity:1;fill:url(#linearGradient8469);fill-opacity:1;stroke:none;stroke-width:5.19999981;stroke-miterlimit:4;stroke-dasharray:none;stroke-opacity:1"
         id="rect8322"
         width="113.74082"
         height="113.79734"
         x="43.162663"
         y="898.29895" />
      <path
         style="opacity:0.09500002;fill:#ffffff;fill-opacity:1;stroke:none;stroke-width:5.19999981;stroke-miterlimit:4;stroke-dasharray:none;stroke-opacity:1"
         d="m 13.636696,867.95245 0,1.97724 173.664614,0 0,-1.97724 -173.664614,0 z"
         id="rect8318-6"
         inkscape:connector-curvature="0" />
      <path
         inkscape:connector-curvature="0"
         style="opacity:0.09500002;fill:#000000;fill-opacity:1;stroke:none;stroke-width:5.19999981;stroke-miterlimit:4;stroke-dasharray:none;stroke-opacity:1"
         d="m 13.636696,1039.0752 0,1.9772 173.664614,0 0,-1.9772 -173.664614,0 z"
         id="rect8318-6-4" />
      <path
         style="opacity:0.418;fill:#000000;fill-opacity:1;stroke:none;stroke-width:5.19999981;stroke-miterlimit:4;stroke-dasharray:none;stroke-opacity:1;filter:url(#filter8436)"
         d="m 316.7832,-140.82617 0,433.45703 434.8711,0 0,-433.45703 -434.8711,0 z m 49.01172,47.95117 335.92188,0 0,336 -335.92188,0 0,-336 z"
         transform="matrix(0.39120546,0,0,0.39120546,-108.52029,924.80899)"
         id="rect8318-68"
         inkscape:connector-curvature="0"
         clip-path="url(#clipPath8459)" />
      <rect
         style="opacity:1;fill:url(#radialGradient8495);fill-opacity:1;stroke:none;stroke-width:5.19999981;stroke-miterlimit:4;stroke-dasharray:none;stroke-opacity:1"
         id="rect8322-2"
         width="113.74082"
         height="113.79734"
         x="43.162663"
         y="898.29895" />
      <rect
         style="opacity:1;fill:url(#radialGradient8495-3);fill-opacity:1;stroke:none;stroke-width:5.19999981;stroke-miterlimit:4;stroke-dasharray:none;stroke-opacity:1"
         id="rect8322-2-7"
         width="113.74082"
         height="113.79734"
         x="43.162663"
         y="898.29895" />
      <path
         style="opacity:0.16139241;fill:#000000;fill-opacity:1;stroke:none;stroke-width:5.19999981;stroke-miterlimit:4;stroke-dasharray:none;stroke-opacity:1;filter:url(#filter8585)"
         d="m 368.29434,761.98716 0,331.00004 330.92304,0 0,-331.00004 -330.92304,0 z m 24.55294,27.62181 280.57807,0 0,280.71853 -280.57807,0 0,-280.71853 z"
         id="rect8320-0"
         inkscape:connector-curvature="0"
         clip-path="url(#clipPath8589)"
         transform="matrix(0.39934733,0,0,0.39934733,-112.86983,583.80245)" />
    </g>
  </g>
</svg>
