<?xml version="1.0" encoding="UTF-8" standalone="no"?>
<!-- Created with Inkscape (http://www.inkscape.org/) -->

<svg
   xmlns:dc="http://purl.org/dc/elements/1.1/"
   xmlns:cc="http://creativecommons.org/ns#"
   xmlns:rdf="http://www.w3.org/1999/02/22-rdf-syntax-ns#"
   xmlns:svg="http://www.w3.org/2000/svg"
   xmlns="http://www.w3.org/2000/svg"
   xmlns:sodipodi="http://sodipodi.sourceforge.net/DTD/sodipodi-0.dtd"
   xmlns:inkscape="http://www.inkscape.org/namespaces/inkscape"
   width="200"
   height="200"
   viewBox="0 0 200 200"
   id="svg4258"
   version="1.1"
   inkscape:version="0.91 r13725"
   sodipodi:docname="accessories-dictionary.svg">
  <defs
     id="defs4260">
    <filter
       inkscape:collect="always"
       style="color-interpolation-filters:sRGB"
       id="filter4462"
       x="-0.13500001"
       width="1.27"
       y="-0.038571429"
       height="1.077143">
      <feGaussianBlur
         inkscape:collect="always"
         stdDeviation="0.28125"
         id="feGaussianBlur4464" />
    </filter>
    <filter
       inkscape:collect="always"
       style="color-interpolation-filters:sRGB"
       id="filter4711"
       x="-0.24875277"
       width="1.4975055"
       y="-0.079072565"
       height="1.1581451">
      <feGaussianBlur
         inkscape:collect="always"
         stdDeviation="5.8042378"
         id="feGaussianBlur4713" />
    </filter>
    <filter
       inkscape:collect="always"
       style="color-interpolation-filters:sRGB"
       id="filter4456"
       x="-0.067524619"
       width="1.1350492"
       y="-0.053984255"
       height="1.1079684">
      <feGaussianBlur
         inkscape:collect="always"
         stdDeviation="3.5989503"
         id="feGaussianBlur4458" />
    </filter>
  </defs>
  <sodipodi:namedview
     id="base"
     pagecolor="#ffffff"
     bordercolor="#666666"
     borderopacity="1.0"
     inkscape:pageopacity="0.0"
     inkscape:pageshadow="2"
     inkscape:zoom="1.979899"
     inkscape:cx="70.478982"
     inkscape:cy="64.235442"
     inkscape:document-units="px"
     inkscape:current-layer="layer1"
     showgrid="false"
     units="px"
     inkscape:window-width="1920"
     inkscape:window-height="1047"
     inkscape:window-x="0"
     inkscape:window-y="0"
     inkscape:window-maximized="1" />
  <metadata
     id="metadata4263">
    <rdf:RDF>
      <cc:Work
         rdf:about="">
        <dc:format>image/svg+xml</dc:format>
        <dc:type
           rdf:resource="http://purl.org/dc/dcmitype/StillImage" />
        <dc:title></dc:title>
      </cc:Work>
    </rdf:RDF>
  </metadata>
  <g
     inkscape:label="Layer 1"
     inkscape:groupmode="layer"
     id="layer1"
     transform="translate(0,-852.36216)">
    <path
       style="display:inline;opacity:0.5;fill:#000000;fill-opacity:1;stroke:none;filter:url(#filter4456);enable-background:new"
       d="m 49.041992,874.07979 c -4.432,0 -8,3.568 -8,8 l 0,144.00001 c 0,4.432 3.568,8 8,8 l 55.916028,0 56,0 c 4.432,0 8,-3.568 8,-8 l 0,-144.00001 c 0,-4.432 -3.568,-8 -8,-8 l -56,0 -55.916028,0 z"
       id="path4439"
       inkscape:connector-curvature="0"
       transform="matrix(1.0698535,0,0,1.0665211,-8.7631941,-63.399734)" />
    <path
       inkscape:connector-curvature="0"
       id="path4400"
       d="m 103.52859,866.6918 0,170.6434 59.99957,0 c 4.74159,0 8.55883,-3.8054 8.55883,-8.5322 l 0,-153.57903 c 0,-4.72682 -3.81724,-8.53217 -8.55883,-8.53217 l -59.99957,0 z"
       style="display:inline;fill:#ebebeb;fill-opacity:1;stroke:none;enable-background:new" />
    <path
       id="path4693"
       d="m 104.95814,873.07979 0,160.00021 48.00006,8 c 4.37168,0.7286 8,-3.568 8,-8 l 0,-160.00021 c 0,-4.432 -3.63428,-8.76362 -8,-8.00002 z"
       style="display:inline;opacity:0.2;fill:#000000;fill-opacity:1;stroke:none;filter:url(#filter4711);enable-background:new"
       inkscape:connector-curvature="0"
       sodipodi:nodetypes="ccssssc"
       transform="matrix(1.0698535,0,0,1.0665211,-7.3346227,-63.399734)" />
    <path
       style="display:inline;opacity:1;fill:#d8d8d8;fill-opacity:1;stroke:none;enable-background:new"
       d="m 43.704555,866.6918 c -4.741591,0 -8.558828,3.80535 -8.558828,8.53217 l 0,153.57923 c 0,4.7269 3.817237,8.5322 8.558828,8.5322 l 66.241215,0 0,-170.6436 z"
       id="path4410"
       inkscape:connector-curvature="0"
       sodipodi:nodetypes="ssssccs" />
    <path
       id="path4437"
       d="m 163.4404,866.6918 c 4.74159,0 8.55883,3.80535 8.55883,8.53217 l 0,1.06652 c 0,-4.72682 -3.81724,-8.53217 -8.55883,-8.53217 l -59.82404,0 0,-1.06652 59.82404,0 z"
       style="display:inline;opacity:0.2;fill:#ffffff;fill-opacity:1;stroke:none;enable-background:new"
       inkscape:connector-curvature="0" />
    <path
       id="path4402"
       d="m 163.43851,866.6918 c 4.74159,0 8.55885,3.80535 8.55885,8.53217 l 0,153.57923 c 0,4.7269 -3.81726,8.5322 -8.55885,8.5322 l -59.91186,0 0,-170.6436 z"
       style="display:inline;opacity:0.1;fill:#000000;fill-opacity:1;stroke:none;enable-background:new"
       inkscape:connector-curvature="0"
       sodipodi:nodetypes="ssssccs" />
    <path
       id="path4404"
       d="m 103.52665,866.6918 0,170.6436 51.35303,8.5322 c 4.67706,0.777 8.55883,-3.8054 8.55883,-8.5322 l 0,-170.6436 c 0,-4.72682 -3.88177,-9.30926 -8.55883,-8.53219 z"
       style="display:inline;fill:#ebebeb;fill-opacity:1;stroke:none;enable-background:new"
       inkscape:connector-curvature="0"
       sodipodi:nodetypes="ccssssc" />
    <path
       sodipodi:nodetypes="ccssssc"
       inkscape:connector-curvature="0"
       style="display:inline;opacity:0.1;fill:#ffffff;fill-opacity:1;stroke:none;enable-background:new"
       d="m 103.52665,866.6918 0,170.6436 51.35303,8.5322 c 4.67706,0.777 8.55883,-3.8054 8.55883,-8.5322 l 0,-170.6436 c 0,-4.72682 -3.88815,-9.34659 -8.55883,-8.53219 z"
       id="path4408" />
    <path
       inkscape:connector-curvature="0"
       style="display:inline;opacity:0.2;fill:#ffffff;fill-opacity:1;stroke:none;enable-background:new"
       d="m 155.74665,858.0763 c -0.28535,0.009 -0.57275,0.0347 -0.86508,0.0833 l -51.35297,8.53217 0,1.06652 51.35297,-8.53217 c 0.29233,-0.0486 0.57973,-0.0748 0.86508,-0.0833 4.28025,-0.11953 7.69375,4.18411 7.69375,8.6155 l 0,-1.06652 c 0,-4.4314 -3.4135,-8.73503 -7.69375,-8.6155 z"
       id="path4412" />
    <path
       inkscape:connector-curvature="0"
       style="display:inline;opacity:0.2;fill:#ffffff;fill-opacity:1;stroke:none;enable-background:new"
       d="m 43.704555,866.6918 c -4.741591,0 -8.558828,3.80535 -8.558828,8.53217 l 0,1.06652 c 0,-4.72682 3.817237,-8.53217 8.558828,-8.53217 l 59.824045,0 0,-1.06652 -59.824045,0 z"
       id="path4414" />
    <g
       style="display:inline;enable-background:new"
       transform="matrix(4.2794142,0,0,4.2660846,-581.18157,-157.16849)"
       id="g4506">
      <path
         style="display:inline;opacity:0.2;fill:#000000;fill-opacity:1;stroke:none;filter:url(#filter4462);enable-background:new"
         d="m 156,239.5 c -1,0 -1,1 -1,1 l 0,16.5 2.5,-1.5 2.5,1.5 0,-16.5 c 0,-1 -1,-1 -1,-1 z"
         id="path4508"
         inkscape:connector-curvature="0"
         sodipodi:nodetypes="cccccccc" />
      <path
         sodipodi:nodetypes="cccccccc"
         inkscape:connector-curvature="0"
         id="path4510"
         transform="translate(0,76)"
         d="m 156,163 c -1,0 -1,1 -1,1 l 0,16.5 2.5,-1.5 2.5,1.5 0,-16.5 c 0,-1 -1,-1 -1,-1 z"
         style="display:inline;fill:#c2352a;fill-opacity:1;stroke:none;enable-background:new" />
      <path
         inkscape:connector-curvature="0"
         style="display:inline;opacity:0.1;fill:#ffffff;fill-opacity:1;stroke:none;enable-background:new"
         d="m 471.91602,28 c -4,0 -4,4 -4,4 l 0,1 c 0,0 0,-4 4,-4 l 12,0 c 0,0 4,0 4,4 l 0,-1 c 0,-4 -4,-4 -4,-4 l -12,0 z"
         transform="matrix(0.25,0,0,0.25,38.02142,232)"
         id="path4512" />
    </g>
  </g>
</svg>
