<?xml version="1.0" encoding="UTF-8" standalone="no"?>
<!-- Created with Inkscape (http://www.inkscape.org/) -->

<svg
   xmlns:dc="http://purl.org/dc/elements/1.1/"
   xmlns:cc="http://creativecommons.org/ns#"
   xmlns:rdf="http://www.w3.org/1999/02/22-rdf-syntax-ns#"
   xmlns:svg="http://www.w3.org/2000/svg"
   xmlns="http://www.w3.org/2000/svg"
   xmlns:xlink="http://www.w3.org/1999/xlink"
   xmlns:sodipodi="http://sodipodi.sourceforge.net/DTD/sodipodi-0.dtd"
   xmlns:inkscape="http://www.inkscape.org/namespaces/inkscape"
   width="200"
   height="200"
   viewBox="0 0 200 200"
   id="svg4258"
   version="1.1"
   inkscape:version="0.91 r13725"
   sodipodi:docname="mail_generic.svg">
  <defs
     id="defs4260">
    <clipPath
       clipPathUnits="userSpaceOnUse"
       id="clipPath4278">
      <path
         sodipodi:nodetypes="ssssssccs"
         style="fill:#e1e1e1;fill-opacity:1;stroke:none"
         d="m 300,196 c -2.216,0 -4,1.784 -4,4 l 0,72 c 0,2.216 1.784,4 4,4 l 56,0 c 2.216,0 4,-1.784 4,-4 l 0,-52 -24,-24 z"
         id="path4280"
         inkscape:connector-curvature="0" />
    </clipPath>
    <clipPath
       clipPathUnits="userSpaceOnUse"
       id="clipPath4088">
      <ellipse
         ry="15.671611"
         rx="17.318172"
         cy="253.67162"
         cx="180.31818"
         style="opacity:0.2;fill:#257db1;fill-opacity:1;stroke:none"
         id="path4090"
         transform="matrix(0.98162783,0,0,1.0847641,2.9946601,55.82614)" />
    </clipPath>
    <linearGradient
       inkscape:collect="always"
       id="linearGradient4129">
      <stop
         style="stop-color:#000000;stop-opacity:1;"
         offset="0"
         id="stop4131" />
      <stop
         style="stop-color:#000000;stop-opacity:0;"
         offset="1"
         id="stop4133" />
    </linearGradient>
    <clipPath
       clipPathUnits="userSpaceOnUse"
       id="clipPath4125">
      <path
         inkscape:connector-curvature="0"
         style="fill:#0286c2;fill-opacity:1;stroke:none"
         d="m 180,242 -4,4 0,18 c 0,1.108 -0.892,2 -2,2 l -20,0 c -1.108,0 -2,-0.892 -2,-2 l 0,-20 c 0,-1.108 0.892,-2 2,-2 l 14,0 6,0 6,0 z"
         id="path4127" />
    </clipPath>
    <filter
       inkscape:collect="always"
       style="color-interpolation-filters:sRGB"
       id="filter5939"
       x="-0.048042493"
       width="1.096085"
       y="-0.079882242"
       height="1.1597645">
      <feGaussianBlur
         inkscape:collect="always"
         stdDeviation="3.295923"
         id="feGaussianBlur5941" />
    </filter>
    <clipPath
       clipPathUnits="userSpaceOnUse"
       id="clipPath5962">
      <path
         inkscape:connector-curvature="0"
         style="opacity:0.35;fill:#d16a6b;fill-opacity:1;stroke:none;stroke-width:5.19999981;stroke-miterlimit:4;stroke-dasharray:none;stroke-opacity:1"
         d="m -287.5,856.36216 0,21.5 23,0 0,-21.5 -23,0 z m 171.21289,11.89063 c -2.46009,-0.0208 -4.8306,1.41466 -7.23242,2.99218 -9.46246,6.21495 -63.32503,45.0353 -73.99414,52.50196 -3.85303,2.69651 -6.98633,4.91267 -6.98633,12.11328 l 0,84.25389 c 0,7.2006 5.79743,12.9981 12.99805,12.9981 l 150.2539,0 c 7.20062,0 12.99805,-5.7975 12.99805,-12.9981 l 0,-84.25389 c 0,-7.20061 -4.31502,-10.14855 -8.5332,-13.30664 -10.52674,-7.88121 -62.40255,-43.99574 -72.39649,-51.19922 -2.18478,-1.57476 -4.69228,-3.08116 -7.10742,-3.10156 z"
         id="path5964" />
    </clipPath>
    <filter
       inkscape:collect="always"
       style="color-interpolation-filters:sRGB"
       id="filter5981"
       x="-0.057958462"
       width="1.1159169"
       y="-0.062190612"
       height="1.1243812">
      <feGaussianBlur
         inkscape:collect="always"
         stdDeviation="2.5658699"
         id="feGaussianBlur5983" />
    </filter>
    <clipPath
       clipPathUnits="userSpaceOnUse"
       id="clipPath6000">
      <path
         inkscape:connector-curvature="0"
         style="opacity:0.35;fill:#d16a6b;fill-opacity:1;stroke:none;stroke-width:5.19999981;stroke-miterlimit:4;stroke-dasharray:none;stroke-opacity:1"
         d="m -287.5,856.36216 0,21.5 23,0 0,-21.5 -23,0 z m 171.21289,11.89063 c -2.46009,-0.0208 -4.8306,1.41466 -7.23242,2.99218 -9.46246,6.21495 -63.32503,45.0353 -73.99414,52.50196 -3.85303,2.69651 -6.98633,4.91267 -6.98633,12.11328 l 0,84.25389 c 0,7.2006 5.79743,12.9981 12.99805,12.9981 l 150.2539,0 c 7.20062,0 12.99805,-5.7975 12.99805,-12.9981 l 0,-84.25389 c 0,-7.20061 -4.31502,-10.14855 -8.5332,-13.30664 -10.52674,-7.88121 -62.40255,-43.99574 -72.39649,-51.19922 -2.18478,-1.57476 -4.69228,-3.08116 -7.10742,-3.10156 z"
         id="path6002" />
    </clipPath>
    <filter
       inkscape:collect="always"
       style="color-interpolation-filters:sRGB"
       id="filter6035"
       x="-0.041024932"
       width="1.0820499"
       y="-0.11163315"
       height="1.2232663">
      <feGaussianBlur
         inkscape:collect="always"
         stdDeviation="3.0094983"
         id="feGaussianBlur6037" />
    </filter>
    <clipPath
       clipPathUnits="userSpaceOnUse"
       id="clipPath6105">
      <path
         inkscape:connector-curvature="0"
         style="opacity:1;fill:#3962ca;fill-opacity:1;stroke:none;stroke-width:5.19999981;stroke-miterlimit:4;stroke-dasharray:none;stroke-opacity:1"
         d="m -116.28711,868.25278 c -2.46009,-0.0208 -4.8306,1.41467 -7.23242,2.99219 -9.46246,6.21495 -63.32503,45.03529 -73.99414,52.50195 -3.51701,2.46135 -6.42601,4.53448 -6.90821,10.35157 l 176.06836,0 c -0.65034,-5.93942 -4.57537,-8.65927 -8.42968,-11.54493 -10.52673,-7.88121 -62.40255,-43.99573 -72.39649,-51.19921 -2.18478,-1.57477 -4.69228,-3.08117 -7.10742,-3.10157 z"
         id="path6107" />
    </clipPath>
    <filter
       inkscape:collect="always"
       style="color-interpolation-filters:sRGB"
       id="filter6343"
       x="-0.0074194882"
       width="1.014839"
       y="-0.019839302"
       height="1.0396786">
      <feGaussianBlur
         inkscape:collect="always"
         stdDeviation="0.54430715"
         id="feGaussianBlur6345" />
    </filter>
    <clipPath
       clipPathUnits="userSpaceOnUse"
       id="clipPath6362">
      <path
         inkscape:connector-curvature="0"
         style="opacity:1;fill:#3962ca;fill-opacity:1;stroke:none;stroke-width:5.19999981;stroke-miterlimit:4;stroke-dasharray:none;stroke-opacity:1"
         d="m -116.28711,868.25278 c -2.46009,-0.0208 -4.8306,1.41467 -7.23242,2.99219 -9.46246,6.21495 -63.32503,45.03529 -73.99414,52.50195 -3.51701,2.46135 -6.42601,4.53448 -6.90821,10.35157 l 176.06836,0 c -0.65034,-5.93942 -4.57537,-8.65927 -8.42968,-11.54493 -10.52673,-7.88121 -62.40255,-43.99573 -72.39649,-51.19921 -2.18478,-1.57477 -4.69228,-3.08117 -7.10742,-3.10157 z"
         id="path6364" />
    </clipPath>
    <linearGradient
       inkscape:collect="always"
       xlink:href="#linearGradient4129"
       id="linearGradient6384"
       x1="-169.02533"
       y1="857.58612"
       x2="-58.308399"
       y2="984.86536"
       gradientUnits="userSpaceOnUse"
       gradientTransform="matrix(1.0227771,0,0,1.0227771,220.43882,-19.168834)" />
    <clipPath
       clipPathUnits="userSpaceOnUse"
       id="clipPath6362-5">
      <path
         inkscape:connector-curvature="0"
         style="opacity:1;fill:#3962ca;fill-opacity:1;stroke:none;stroke-width:5.19999981;stroke-miterlimit:4;stroke-dasharray:none;stroke-opacity:1"
         d="m -116.28711,868.25278 c -2.46009,-0.0208 -4.8306,1.41467 -7.23242,2.99219 -9.46246,6.21495 -63.32503,45.03529 -73.99414,52.50195 -3.51701,2.46135 -6.42601,4.53448 -6.90821,10.35157 l 176.06836,0 c -0.65034,-5.93942 -4.57537,-8.65927 -8.42968,-11.54493 -10.52673,-7.88121 -62.40255,-43.99573 -72.39649,-51.19921 -2.18478,-1.57477 -4.69228,-3.08117 -7.10742,-3.10157 z"
         id="path6364-9" />
    </clipPath>
    <clipPath
       clipPathUnits="userSpaceOnUse"
       id="clipPath6105-9">
      <path
         inkscape:connector-curvature="0"
         style="opacity:1;fill:#3962ca;fill-opacity:1;stroke:none;stroke-width:5.19999981;stroke-miterlimit:4;stroke-dasharray:none;stroke-opacity:1"
         d="m -116.28711,868.25278 c -2.46009,-0.0208 -4.8306,1.41467 -7.23242,2.99219 -9.46246,6.21495 -63.32503,45.03529 -73.99414,52.50195 -3.51701,2.46135 -6.42601,4.53448 -6.90821,10.35157 l 176.06836,0 c -0.65034,-5.93942 -4.57537,-8.65927 -8.42968,-11.54493 -10.52673,-7.88121 -62.40255,-43.99573 -72.39649,-51.19921 -2.18478,-1.57477 -4.69228,-3.08117 -7.10742,-3.10157 z"
         id="path6107-5" />
    </clipPath>
    <clipPath
       clipPathUnits="userSpaceOnUse"
       id="clipPath5962-4">
      <path
         inkscape:connector-curvature="0"
         style="opacity:0.35;fill:#d16a6b;fill-opacity:1;stroke:none;stroke-width:5.19999981;stroke-miterlimit:4;stroke-dasharray:none;stroke-opacity:1"
         d="m -287.5,856.36216 0,21.5 23,0 0,-21.5 -23,0 z m 171.21289,11.89063 c -2.46009,-0.0208 -4.8306,1.41466 -7.23242,2.99218 -9.46246,6.21495 -63.32503,45.0353 -73.99414,52.50196 -3.85303,2.69651 -6.98633,4.91267 -6.98633,12.11328 l 0,84.25389 c 0,7.2006 5.79743,12.9981 12.99805,12.9981 l 150.2539,0 c 7.20062,0 12.99805,-5.7975 12.99805,-12.9981 l 0,-84.25389 c 0,-7.20061 -4.31502,-10.14855 -8.5332,-13.30664 -10.52674,-7.88121 -62.40255,-43.99574 -72.39649,-51.19922 -2.18478,-1.57476 -4.69228,-3.08116 -7.10742,-3.10156 z"
         id="path5964-7" />
    </clipPath>
    <clipPath
       clipPathUnits="userSpaceOnUse"
       id="clipPath6000-4">
      <path
         inkscape:connector-curvature="0"
         style="opacity:0.35;fill:#d16a6b;fill-opacity:1;stroke:none;stroke-width:5.19999981;stroke-miterlimit:4;stroke-dasharray:none;stroke-opacity:1"
         d="m -287.5,856.36216 0,21.5 23,0 0,-21.5 -23,0 z m 171.21289,11.89063 c -2.46009,-0.0208 -4.8306,1.41466 -7.23242,2.99218 -9.46246,6.21495 -63.32503,45.0353 -73.99414,52.50196 -3.85303,2.69651 -6.98633,4.91267 -6.98633,12.11328 l 0,84.25389 c 0,7.2006 5.79743,12.9981 12.99805,12.9981 l 150.2539,0 c 7.20062,0 12.99805,-5.7975 12.99805,-12.9981 l 0,-84.25389 c 0,-7.20061 -4.31502,-10.14855 -8.5332,-13.30664 -10.52674,-7.88121 -62.40255,-43.99574 -72.39649,-51.19922 -2.18478,-1.57476 -4.69228,-3.08116 -7.10742,-3.10156 z"
         id="path6002-1" />
    </clipPath>
    <filter
       inkscape:collect="always"
       style="color-interpolation-filters:sRGB"
       id="filter6502"
       x="-0.058201166"
       width="1.1164023"
       y="-0.061913574"
       height="1.1238271">
      <feGaussianBlur
         inkscape:collect="always"
         stdDeviation="4.2757608"
         id="feGaussianBlur6504" />
    </filter>
  </defs>
  <sodipodi:namedview
     id="base"
     pagecolor="#4e4e4e"
     bordercolor="#666666"
     borderopacity="1.0"
     inkscape:pageopacity="0"
     inkscape:pageshadow="2"
     inkscape:zoom="1.4142136"
     inkscape:cx="21.121162"
     inkscape:cy="52.933338"
     inkscape:document-units="px"
     inkscape:current-layer="g5494"
     showgrid="false"
     units="px"
     inkscape:window-width="1920"
     inkscape:window-height="1047"
     inkscape:window-x="0"
     inkscape:window-y="0"
     inkscape:window-maximized="1" />
  <metadata
     id="metadata4263">
    <rdf:RDF>
      <cc:Work
         rdf:about="">
        <dc:format>image/svg+xml</dc:format>
        <dc:type
           rdf:resource="http://purl.org/dc/dcmitype/StillImage" />
        <dc:title></dc:title>
      </cc:Work>
    </rdf:RDF>
  </metadata>
  <g
     inkscape:label="Layer 1"
     inkscape:groupmode="layer"
     id="layer1"
     transform="translate(0,-852.36216)">
    <g
       id="g5494">
      <path
         style="opacity:0.5;fill:#000000;fill-opacity:1;fill-rule:evenodd;stroke:none;stroke-width:1px;stroke-linecap:butt;stroke-linejoin:miter;stroke-opacity:1;filter:url(#filter6502)"
         d="m 102.20889,867.36802 c -2.460094,-0.0208 -4.830604,1.41467 -7.232424,2.99219 -9.46246,6.21495 -63.32503,45.03529 -73.99414,52.50195 -3.51701,2.46135 -6.42599,4.53447 -6.90821,10.35156 l 0.10157,0 c -0.03875,0.28702 -0.07609,0.57747 -0.10157,0.88477 l 0.002,0 c -0.04616,0.55583 -0.08008,1.13357 -0.08008,1.76172 l 0,84.25389 c 0,6.7288 5.06416,12.2296 11.60352,12.9219 0,0 0.0019,0 0.0019,0 0.45789,0.048 0.92144,0.076 1.39258,0.076 l 11.64843,0 138.605474,0 c 0.45004,0 0.89403,-0.022 1.33203,-0.066 6.57005,-0.6633 11.66602,-6.1811 11.66602,-12.9317 l 0,-74.09374 0,-10.16015 c 0,-0.34563 -0.0147,-0.67617 -0.0371,-1 -0.0156,-0.26186 -0.0409,-0.51743 -0.0684,-0.76758 -1.5e-4,-0.001 1.4e-4,-0.003 0,-0.004 -0.0291,-0.2642 -0.0558,-0.53149 -0.0977,-0.7832 0.0363,-0.0322 0.22862,-0.17363 0.23047,-0.18164 0.0514,-0.22216 0.0443,-0.34805 0.0234,-0.43945 l -0.23243,0 c -0.82239,-5.56816 -4.61571,-8.21866 -8.35156,-11.01563 -4.10584,-3.07398 -14.95111,-10.74405 -26.69922,-19.01758 L 167.496,890.1688 157.06631,879.73911 142.77334,894.03208 c -14.59504,-10.25087 -28.74922,-20.16918 -33.45703,-23.5625 -2.18478,-1.57477 -4.69228,-3.08116 -7.10742,-3.10156 z"
         id="path5788-0"
         inkscape:connector-curvature="0"
         transform="matrix(1.0227771,0,0,1.0227771,-3.0338837,-19.168834)" />
      <path
         style="fill:#4171d9;fill-opacity:1;fill-rule:evenodd;stroke:none;stroke-width:1px;stroke-linecap:butt;stroke-linejoin:miter;stroke-opacity:1"
         d="m 11.364799,936.23567 c 0,0 0,-0.13184 0.05993,-0.19977 0.05993,-0.0679 34.177447,-5.61583 34.177447,-5.61583 l 145.703484,5.60385 c 0,0 0.22373,0.044 0.0879,0.63125 -0.13583,0.58729 -92.092841,65.72453 -92.092841,65.72453 0,0 -82.396575,-29.5919 -87.935905,-66.14403 z"
         id="path5788"
         inkscape:connector-curvature="0" />
      <path
         style="opacity:1;fill:#3962ca;fill-opacity:1;stroke:none;stroke-width:5.19999981;stroke-miterlimit:4;stroke-dasharray:none;stroke-opacity:1"
         d="m 101.50303,868.86023 c -2.51613,-0.0213 -4.940633,1.44688 -7.39716,3.06033 -9.677987,6.35651 -64.76739,46.06108 -75.679511,53.69781 -3.597118,2.51741 -6.572376,4.63775 -7.065559,10.58734 l 180.07869,0 c -0.66516,-6.07471 -4.6796,-8.8565 -8.6217,-11.80788 -10.7665,-8.06073 -63.82389,-44.99784 -74.04546,-52.36539 -2.23454,-1.61063 -4.79916,-3.15134 -7.2693,-3.17221 z"
         id="rect5743"
         inkscape:connector-curvature="0" />
      <path
         inkscape:connector-curvature="0"
         style="opacity:0.30100002;fill:#000000;fill-opacity:1;fill-rule:evenodd;stroke:none;stroke-width:1px;stroke-linecap:butt;stroke-linejoin:miter;stroke-opacity:1;filter:url(#filter5981)"
         d="m -204.4199,934.09263 c -0.0464,0.55753 -0.0801,1.13735 -0.0801,1.76758 l 0,84.25389 c 0,7.2006 5.79743,12.9981 12.99805,12.9981 l 11.64843,0 81.60354,-35.31254 -106.16992,-63.70703 z"
         id="path5761-0"
         clip-path="url(#clipPath6000)"
         transform="matrix(1.0227771,0,0,1.0227771,220.43882,-19.168834)" />
      <path
         style="fill:#35baf6;fill-opacity:1;fill-rule:evenodd;stroke:none;stroke-width:1px;stroke-linecap:butt;stroke-linejoin:miter;stroke-opacity:1"
         d="m 11.362804,936.19971 c -0.04746,0.57023 -0.0819,1.16326 -0.0819,1.80784 l 0,86.17295 c 0,7.3646 5.929479,13.2942 13.294108,13.2942 l 11.913748,0 83.46222,-36.1169 -108.588172,-65.15809 z"
         id="path5761"
         inkscape:connector-curvature="0" />
      <path
         inkscape:connector-curvature="0"
         style="opacity:0.37000002;fill:#000000;fill-opacity:1;fill-rule:evenodd;stroke:none;stroke-width:1px;stroke-linecap:butt;stroke-linejoin:miter;stroke-opacity:1;filter:url(#filter5939)"
         d="m -28.35547,934.08872 -164.54492,98.94728 c 0.45914,0.049 0.92597,0.076 1.39844,0.076 l 150.2539,0 c 7.20062,0 12.99805,-5.7975 12.99805,-12.9981 l 0,-84.25386 c 0,-0.62484 -0.0434,-1.20778 -0.10547,-1.77149 z"
         id="path5779-9"
         clip-path="url(#clipPath5962)"
         transform="matrix(1.0227771,0,0,1.0227771,220.43882,-19.168834)" />
      <path
         style="opacity:0.11100003;fill:#000000;fill-opacity:1;fill-rule:evenodd;stroke:none;stroke-width:1px;stroke-linecap:butt;stroke-linejoin:miter;stroke-opacity:1;filter:url(#filter6035)"
         d="m -204.23728,932.68427 c -4.9e-4,0.009 -0.004,0.0293 -0.004,0.0293 5.41597,35.73812 85.97852,64.67188 85.97852,64.67188 0,0 89.90819,-63.6875 90.041009,-64.26172 0.0514,-0.22216 0.04427,-0.34806 0.02344,-0.43946 l -176.039059,0 z"
         id="path5788-7"
         inkscape:connector-curvature="0"
         clip-path="url(#clipPath6105)"
         transform="matrix(1.0227771,0,0,1.0227771,220.43882,-19.168834)" />
      <path
         style="opacity:0.26600001;fill:#ffffff;fill-opacity:1;stroke:none;stroke-width:5.19999981;stroke-miterlimit:4;stroke-dasharray:none;stroke-opacity:1;filter:url(#filter6343)"
         d="m -116.28711,867.3689 c -2.46009,-0.0208 -4.8306,1.41467 -7.23242,2.99219 -9.46246,6.21495 -63.32503,45.03529 -73.99414,52.50195 -3.51701,2.46135 -6.426,4.53447 -6.90821,10.35156 l 0.24805,0 c 0.88206,-4.49846 3.52685,-6.39116 6.66016,-8.58398 10.66911,-7.46666 64.53168,-46.287 73.99414,-52.50195 2.40182,-1.57752 4.77233,-3.01299 7.23242,-2.99219 2.41514,0.0204 4.92264,1.52679 7.10742,3.10156 9.993943,7.20348 61.869757,43.31801 72.396487,51.19922 3.447841,2.58134 6.945006,5.03805 8.111328,9.77734 l 0.318359,0 c -0.65034,-5.93942 -4.575377,-8.65926 -8.429687,-11.54492 -10.52673,-7.88121 -62.402544,-43.99574 -72.396487,-51.19922 -2.18478,-1.57477 -4.69228,-3.08116 -7.10742,-3.10156 z"
         id="rect5743-7"
         inkscape:connector-curvature="0"
         clip-path="url(#clipPath6362)"
         transform="matrix(1.0227771,0,0,1.0227771,220.43882,-19.168834)" />
      <path
         style="fill:url(#linearGradient6384);fill-opacity:1;fill-rule:evenodd;stroke:none;stroke-width:1px;stroke-linecap:butt;stroke-linejoin:miter;stroke-opacity:1"
         d="m 151.16165,901.88274 c -14.28447,11.35616 -53.283266,43.71335 -49.87236,56.34663 l 26.80394,26.80395 63.45214,-36.6342 0,-10.39157 c 0,-7.36462 -4.41332,-10.3797 -8.72758,-13.60972 -4.71829,-3.53252 -17.85837,-12.81009 -31.65614,-22.51509 z"
         id="path6368"
         inkscape:connector-curvature="0" />
      <path
         style="fill:#83d5fa;fill-opacity:1;fill-rule:evenodd;stroke:none;stroke-width:1px;stroke-linecap:butt;stroke-linejoin:miter;stroke-opacity:1"
         d="M 191.43749,936.19571 23.144716,1037.3968 c 0.469598,0.05 0.947061,0.078 1.430292,0.078 l 153.676252,0 c 7.36463,0 13.29411,-5.9296 13.29411,-13.2942 l 0,-86.17295 c 0,-0.63907 -0.0444,-1.23529 -0.10788,-1.81184 z"
         id="path5779"
         inkscape:connector-curvature="0" />
      <path
         style="fill:#e3e3e3;fill-opacity:1;fill-rule:evenodd;stroke:none;stroke-width:1px;stroke-linecap:butt;stroke-linejoin:miter;stroke-opacity:1"
         d="M 68.021761,924.99598 101.28954,958.26376 168.2771,891.27618 157.60971,880.6088 101.65114,936.56737 79.141148,914.05738 Z"
         id="path6366"
         inkscape:connector-curvature="0" />
    </g>
  </g>
</svg>
